# xmcd
#
# Track frame offsets:
#	182
#	11120
#	26885
#	43492
#	61377
#	76827
#	90905
#	100632
#	117280
#	129370
#	142735
#	164837
#	177932
#	192570
#	207790
#	222220
#	233440
#	250267
#	263125
#	279250
#	296105
#
# Disc length: 4161 seconds
#
# Revision: 1
# Processed by: cddbd v1.4PL0 Copyright (c) Steve Scherf et al.
# Submitted via: EasyCDDAExtractor 6.0.0.1
#
DISCID=2b103f15
DTITLE=Bobby Bare - Old Dogs
DYEAR=1900
DGENRE=Country
TTITLE0=Old Dogs
TTITLE1=Come Back
TTITLE2=I Don't Do It No More
TTITLE3=She'd Rather Be Homeless
TTITLE4=Cut The Mustard
TTITLE5=Young Mans Job
TTITLE6=When I Was
TTITLE7=Couch Potato
TTITLE8=Hard When It Ain't
TTITLE9=Jittabug
TTITLE10=Me and Jimmy Rogers
TTITLE11=Elvis Has Left The Building
TTITLE12=Wait Until Tomorrow
TTITLE13=I Never Expected
TTITLE14=Ever Livin' Machine
TTITLE15=Slap My Face
TTITLE16=Old Man's Blues
TTITLE17=Rough On The Livin'
TTITLE18=Alimony
TTITLE19=Still Gonna Die
TTITLE20=Time
EXTD=
EXTT0=
EXTT1=
EXTT2=
EXTT3=
EXTT4=
EXTT5=
EXTT6=
EXTT7=
EXTT8=
EXTT9=
EXTT10=
EXTT11=
EXTT12=
EXTT13=
EXTT14=
EXTT15=
EXTT16=
EXTT17=
EXTT18=
EXTT19=
EXTT20=
PLAYORDER=
